<svg width="32" height="14" viewBox="0 0 32 14" fill="none" xmlns="http://www.w3.org/2000/svg">
<g clip-path="url(#clip0_11027_248)">
<path d="M30.3587 13.3318L25.6176 0.278633L25.6144 0.27002H25.5208L24.5445 2.9524L22.7671 7.8357L22.763 7.83184C22.147 7.2883 21.2779 6.94851 20.1834 6.82198L19.8495 6.78752L20.1807 6.74505C21.9857 6.4207 23.199 5.28074 23.199 3.90732C23.199 2.02392 21.4276 0.709314 18.8901 0.709314H13.6106V0.804657H15.1447V10.5365L11.4189 0.278633L11.4157 0.27002H11.3221L10.3458 2.9524L6.58017 13.2982L6.557 13.3009C6.49264 13.3088 6.42899 13.3151 6.36602 13.3199C6.27127 13.3273 6.17712 13.3318 6.08266 13.3318H2.27784L9.51027 0.804654L9.56403 0.710499H0.71849V4.58571H0.812349C0.828982 2.69815 1.92825 0.804655 4.35698 0.804655H7.28708L0 13.4256H9.81709V9.71287H9.72323C9.71046 11.3581 8.77782 12.9207 6.74977 13.2735L6.68532 13.2845L8.22982 9.03922H12.5565L14.1156 13.3318H12.5776V13.4256H18.6139V13.3318H17.0694V6.85673H18.8515C20.6651 6.85673 21.7053 7.66699 21.7053 9.07903V10.2276C21.7053 10.3541 21.7139 10.5392 21.7234 10.6939V10.6996L20.7655 13.3312H19.5142V13.425H22.1045V13.3312H20.8665L21.7389 10.9348C21.7406 10.958 21.7415 10.9719 21.7415 10.9719L21.7656 11.1879L21.7888 11.3307C21.9343 12.2144 22.2723 12.8639 22.793 13.2614L22.8678 13.3157C23.2635 13.5908 23.755 13.7301 24.3298 13.7301C25.091 13.7301 25.5986 13.5403 26.0177 13.0935L25.9628 13.0419C25.5767 13.3983 25.2526 13.5426 24.8466 13.5426C24.1548 13.5426 23.7928 12.7036 23.7928 11.8761V10.2668C23.7964 9.86749 23.7339 9.47035 23.6077 9.0915L23.5905 9.0416V9.03982H26.7552L28.3143 13.3323H26.7763V13.4262H32V13.3323L30.3587 13.3318ZM8.26427 8.94537L10.3957 3.08963L12.5223 8.94537H8.26427ZM17.0703 6.76257V0.804655H18.4307C20.2478 0.804655 21.2072 1.88491 21.2072 3.92752C21.2072 6.09992 20.6565 6.76257 18.8515 6.76257H17.0703ZM23.5537 8.94537L23.5444 8.9222C23.4038 8.57968 23.1991 8.26715 22.9412 8.00144L22.8521 7.91233L22.8426 7.90342L24.5932 3.08963L26.7199 8.94537H23.5537Z" fill="black"/>
</g>
<defs>
<clipPath id="clip0_11027_248">
<rect width="32" height="13.46" fill="white" transform="translate(0 0.27002)"/>
</clipPath>
</defs>
</svg>
